<svg width="34" height="34" viewBox="0 0 34 34" fill="none" xmlns="http://www.w3.org/2000/svg">
<rect x="0.5" y="0.5" width="33" height="33" rx="16.5" fill="white"/>
<rect x="0.5" y="0.5" width="33" height="33" rx="16.5" stroke="#C2C2C2"/>
<path d="M17 11C17.1989 11 17.3897 11.079 17.5303 11.2197C17.671 11.3603 17.75 11.5511 17.75 11.75V16.25H22.25C22.4489 16.25 22.6397 16.329 22.7803 16.4697C22.921 16.6103 23 16.8011 23 17C23 17.1989 22.921 17.3897 22.7803 17.5303C22.6397 17.671 22.4489 17.75 22.25 17.75H17.75V22.25C17.75 22.4489 17.671 22.6397 17.5303 22.7803C17.3897 22.921 17.1989 23 17 23C16.8011 23 16.6103 22.921 16.4697 22.7803C16.329 22.6397 16.25 22.4489 16.25 22.25V17.75H11.75C11.5511 17.75 11.3603 17.671 11.2197 17.5303C11.079 17.3897 11 17.1989 11 17C11 16.8011 11.079 16.6103 11.2197 16.4697C11.3603 16.329 11.5511 16.25 11.75 16.25H16.25V11.75C16.25 11.5511 16.329 11.3603 16.4697 11.2197C16.6103 11.079 16.8011 11 17 11Z" fill="#C2C2C2"/>
</svg>
