<svg width="6" height="12" viewBox="0 0 6 12" fill="none" xmlns="http://www.w3.org/2000/svg">
<g id="Arrow - Right 1">
<path id="Vector 58 (Stroke)" fill-rule="evenodd" clip-rule="evenodd" d="M0.505067 1.00507C0.778434 0.731707 1.22165 0.731707 1.49502 1.00507L1.06159 1.4385C1.49502 1.00508 1.49497 1.00503 1.49502 1.00507L1.54097 1.05115L1.66909 1.18013C1.77928 1.2913 1.9365 1.45049 2.12509 1.64302C2.502 2.02777 3.00549 2.54698 3.50978 3.08279C4.01239 3.61681 4.52288 4.17482 4.91048 4.63509C5.10302 4.86373 5.27526 5.08004 5.4028 5.26339C5.46588 5.35406 5.528 5.45082 5.57716 5.54606C5.61082 5.61129 5.70004 5.78684 5.70004 6.00005C5.70004 6.21325 5.61082 6.38881 5.57716 6.45403C5.528 6.54927 5.46588 6.64604 5.4028 6.73671C5.27526 6.92006 5.10302 7.13637 4.91048 7.36501C4.52288 7.82528 4.01239 8.38328 3.50978 8.9173C3.00549 9.45312 2.502 9.97232 2.12509 10.3571C1.9365 10.5496 1.77928 10.7088 1.66909 10.82L1.54097 10.9489L1.49587 10.9942L1.49509 10.9949C1.49505 10.995 1.49502 10.995 1.00004 10.5L0.505083 10.0051L0.548961 9.96106L0.674747 9.83443C0.783307 9.7249 0.938585 9.56768 1.12499 9.37739C1.49809 8.99652 1.9946 8.48448 2.4903 7.95779C2.98769 7.42931 3.4772 6.89357 3.8396 6.46322C3.99441 6.27938 4.11884 6.12323 4.20871 6.00005C4.11884 5.87687 3.99441 5.72072 3.83961 5.53688C3.4772 5.10653 2.98769 4.57078 2.4903 4.0423C1.9946 3.51562 1.49809 3.00357 1.12499 2.62271C0.938585 2.43242 0.783307 2.2752 0.674747 2.16567L0.548961 2.03904L0.505674 1.99563C0.232307 1.72226 0.2317 1.27844 0.505067 1.00507ZM4.33309 6.18816C4.34028 6.20618 4.34284 6.20707 4.33309 6.18816C4.33296 6.18792 4.33322 6.18841 4.33309 6.18816ZM0.505067 10.995C0.2317 10.7217 0.231716 10.2784 0.505083 10.0051L1.00004 10.5L1.49509 10.9949C1.22173 11.2683 0.778434 11.2684 0.505067 10.995Z" fill="#006CFA"/>
</g>
</svg>
