<svg width="18" height="12" viewBox="0 0 18 12" fill="none" xmlns="http://www.w3.org/2000/svg">
<g id="Arrow - Left 3">
<g id="Group 16">
<path id="Line 14 (Stroke)" fill-rule="evenodd" clip-rule="evenodd" d="M17.2 6.00001C17.2 6.38661 16.8866 6.70001 16.5 6.70001L1.50001 6.70001C1.11341 6.70001 0.800013 6.38661 0.800013 6.00001C0.800013 5.61341 1.11341 5.30001 1.50001 5.30001L16.5 5.30001C16.8866 5.30001 17.2 5.61341 17.2 6.00001Z" fill="#222628"/>
<path id="Vector 58 (Stroke)" fill-rule="evenodd" clip-rule="evenodd" d="M5.98025 11.5093C5.69898 11.7745 5.25596 11.7615 4.99073 11.4803L5.50001 11L6.00929 10.5198C6.27452 10.801 6.26152 11.2441 5.98025 11.5093ZM5.50001 1.00001L6.00925 1.48029L5.81675 1.68488C5.69401 1.81549 5.51859 2.00241 5.30806 2.22744C4.8869 2.67763 4.32574 3.27983 3.76491 3.88878C3.20331 4.49855 2.64514 5.11174 2.22865 5.58506C2.08962 5.74304 1.96876 5.88277 1.86996 6.00001C1.96876 6.11725 2.08962 6.25698 2.22865 6.41497C2.64514 6.88828 3.20331 7.50147 3.76491 8.11125C4.32574 8.72019 4.8869 9.32239 5.30806 9.77258C5.51859 9.99762 5.69401 10.1845 5.81675 10.3151L6.00929 10.5198L5.50001 11L4.99073 11.4803L4.79655 11.2739C4.6732 11.1426 4.49706 10.9549 4.28571 10.729C3.86312 10.2773 3.29928 9.67225 2.73511 9.05967C2.17171 8.44794 1.60488 7.82536 1.17762 7.33982C0.964862 7.09803 0.781334 6.88414 0.648879 6.7202C0.583769 6.63961 0.522979 6.56125 0.475556 6.49294C0.452714 6.46005 0.423655 6.41622 0.397476 6.36791C0.384501 6.34397 0.365503 6.30668 0.348181 6.26067C0.335185 6.22616 0.30001 6.12851 0.30001 6.00001C0.30001 5.87152 0.335185 5.77386 0.348181 5.73935C0.365503 5.69335 0.3845 5.65605 0.397476 5.63211C0.423655 5.5838 0.452713 5.53998 0.475556 5.50708C0.522979 5.43878 0.583769 5.36041 0.648879 5.27982C0.781334 5.11589 0.964862 4.90199 1.17762 4.66021C1.60488 4.17466 2.17171 3.55209 2.73511 2.94035C3.29928 2.32777 3.86312 1.7227 4.28571 1.271C4.49706 1.04508 4.6732 0.857391 4.79655 0.726134L4.99066 0.519837L5.50001 1.00001ZM5.50001 1.00001L6.00925 1.48029C6.27448 1.19902 6.26152 0.755957 5.98025 0.490727C5.69898 0.225498 5.25589 0.238567 4.99066 0.519837L5.50001 1.00001Z" fill="#222628"/>
</g>
</g>
</svg>
