<svg xmlns="http://www.w3.org/2000/svg" width="14" height="14" viewBox="0 0 14 14" fill="none">
  <g clip-path="url(#clip0_256_21)">
    <path d="M10.6277 0.127983C10.6683 0.0872399 10.7166 0.0549149 10.7698 0.0328593C10.8229 0.0108036 10.8799 -0.000549316 10.9374 -0.000549316C10.995 -0.000549316 11.052 0.0108036 11.1051 0.0328593C11.1583 0.0549149 11.2066 0.0872399 11.2472 0.127983L13.8722 2.75298C13.9129 2.79362 13.9453 2.8419 13.9673 2.89505C13.9894 2.94821 14.0007 3.00519 14.0007 3.06273C14.0007 3.12028 13.9894 3.17726 13.9673 3.23041C13.9453 3.28356 13.9129 3.33184 13.8722 3.37248L5.12219 12.1225C5.08021 12.1642 5.0302 12.1969 4.97519 12.2187L0.600195 13.9687C0.520689 14.0006 0.433591 14.0083 0.349699 13.9911C0.265808 13.9739 0.188811 13.9325 0.128255 13.8719C0.0676997 13.8114 0.0262479 13.7344 0.00903888 13.6505C-0.00817014 13.5666 -0.000379579 13.4795 0.0314448 13.4L1.78144 9.02498C1.80326 8.96998 1.836 8.91997 1.87769 8.87798L10.6277 0.127983ZM9.80607 2.18773L11.8124 4.19411L12.9438 3.06273L10.9374 1.05636L9.80607 2.18773ZM11.1938 4.81273L9.18744 2.80636L3.49994 8.49386V8.75023H3.93744C4.05348 8.75023 4.16476 8.79633 4.2468 8.87837C4.32885 8.96042 4.37494 9.0717 4.37494 9.18773V9.62523H4.81244C4.92848 9.62523 5.03976 9.67133 5.1218 9.75337C5.20385 9.83542 5.24994 9.9467 5.24994 10.0627V10.5002H5.50632L11.1938 4.81273ZM2.65294 9.34086L2.56019 9.43361L1.22319 12.777L4.56657 11.44L4.65932 11.3472C4.57586 11.3161 4.50391 11.2601 4.4531 11.187C4.40228 11.1138 4.37501 11.0268 4.37494 10.9377V10.5002H3.93744C3.82141 10.5002 3.71013 10.4541 3.62809 10.3721C3.54604 10.29 3.49994 10.1788 3.49994 10.0627V9.62523H3.06244C2.97335 9.62517 2.8864 9.5979 2.81322 9.54708C2.74005 9.49626 2.68413 9.42432 2.65294 9.34086Z" fill="black"/>
  </g>
  <defs>
    <clipPath id="clip0_256_21">
      <rect width="14" height="14" fill="white"/>
    </clipPath>
  </defs>
</svg>