<svg xmlns="http://www.w3.org/2000/svg" width="18" height="18" viewBox="0 0 18 18" fill="none">
  <path d="M12 1.3125V2.25H15.9375C16.0867 2.25 16.2298 2.30926 16.3352 2.41475C16.4407 2.52024 16.5 2.66332 16.5 2.8125C16.5 2.96168 16.4407 3.10476 16.3352 3.21025C16.2298 3.31574 16.0867 3.375 15.9375 3.375H2.0625C1.91332 3.375 1.77024 3.31574 1.66475 3.21025C1.55926 3.10476 1.5 2.96168 1.5 2.8125C1.5 2.66332 1.55926 2.52024 1.66475 2.41475C1.77024 2.30926 1.91332 2.25 2.0625 2.25H6V1.3125C6 0.588 6.588 0 7.3125 0H10.6875C11.412 0 12 0.588 12 1.3125ZM7.125 1.3125V2.25H10.875V1.3125C10.875 1.26277 10.8552 1.21508 10.8201 1.17992C10.7849 1.14475 10.7372 1.125 10.6875 1.125H7.3125C7.26277 1.125 7.21508 1.14475 7.17992 1.17992C7.14475 1.21508 7.125 1.26277 7.125 1.3125ZM3.74775 4.6335C3.74134 4.55945 3.72031 4.4874 3.68589 4.42152C3.65146 4.35564 3.60432 4.29724 3.54719 4.24968C3.49006 4.20213 3.42407 4.16638 3.35303 4.14448C3.282 4.12259 3.20733 4.11499 3.13334 4.12213C3.05936 4.12926 2.98752 4.15099 2.92198 4.18606C2.85644 4.22113 2.7985 4.26883 2.75151 4.32643C2.70452 4.38402 2.66941 4.45036 2.64821 4.5216C2.62701 4.59285 2.62014 4.66759 2.628 4.7415L3.687 15.69C3.71867 16.0145 3.87001 16.3156 4.11152 16.5347C4.35304 16.7537 4.66744 16.8751 4.9935 16.875H13.0065C13.3327 16.875 13.6472 16.7536 13.8887 16.5344C14.1302 16.3152 14.2815 16.0139 14.313 15.6893L15.3728 4.7415C15.3871 4.59291 15.3418 4.44472 15.2468 4.32953C15.1519 4.21433 15.0151 4.14157 14.8665 4.12725C14.7179 4.11293 14.5697 4.15822 14.4545 4.25316C14.3393 4.3481 14.2666 4.48491 14.2523 4.6335L13.1933 15.5805C13.1888 15.6269 13.1672 15.67 13.1326 15.7013C13.0981 15.7327 13.0531 15.75 13.0065 15.75H4.9935C4.94687 15.75 4.9019 15.7327 4.86737 15.7013C4.83284 15.67 4.81123 15.6269 4.80675 15.5805L3.74775 4.6335Z" fill="black"/>
  <path d="M6.9045 5.62573C6.97827 5.62137 7.05219 5.63159 7.12201 5.6558C7.19184 5.68002 7.25621 5.71776 7.31144 5.76686C7.36667 5.81597 7.41169 5.87548 7.44391 5.94199C7.47614 6.0085 7.49494 6.0807 7.49925 6.15448L7.87425 12.5295C7.883 12.6786 7.83217 12.825 7.73294 12.9366C7.63371 13.0482 7.49421 13.1159 7.34512 13.1246C7.19604 13.1334 7.04958 13.0825 6.93797 12.9833C6.82637 12.8841 6.75875 12.7446 6.75 12.5955L6.375 6.22048C6.37063 6.14671 6.38085 6.07279 6.40507 6.00297C6.42928 5.93314 6.46702 5.86877 6.51613 5.81354C6.56523 5.75831 6.62474 5.71329 6.69125 5.68107C6.75776 5.64884 6.82997 5.63004 6.90375 5.62573H6.9045ZM11.6242 6.22048C11.633 6.0714 11.5822 5.92494 11.4829 5.81334C11.3837 5.70173 11.2442 5.63411 11.0951 5.62536C10.946 5.61661 10.7996 5.66744 10.688 5.76667C10.5764 5.8659 10.5087 6.0054 10.5 6.15448L10.125 12.5295C10.1162 12.6785 10.167 12.8248 10.2662 12.9364C10.3654 13.0479 10.5048 13.1155 10.6537 13.1242C10.8027 13.133 10.9491 13.0822 11.0606 12.983C11.1722 12.8839 11.2397 12.7445 11.2485 12.5955L11.6242 6.22048Z" fill="black"/>
</svg>