<svg width="24" height="24" viewBox="0 0 24 24" fill="none" xmlns="http://www.w3.org/2000/svg">
<path fill-rule="evenodd" clip-rule="evenodd" d="M16.995 9.50499C17.2684 9.77836 17.2684 10.2216 16.995 10.4949L16.5616 10.0615C16.995 10.4949 16.9951 10.4949 16.995 10.4949L16.9489 10.5409L16.82 10.669C16.7088 10.7792 16.5496 10.9364 16.3571 11.125C15.9723 11.5019 15.4531 12.0054 14.9173 12.5097C14.3833 13.0123 13.8253 13.5228 13.365 13.9104C13.1364 14.1029 12.92 14.2752 12.7367 14.4027C12.646 14.4658 12.5493 14.5279 12.454 14.5771C12.3888 14.6107 12.2132 14.7 12 14.7C11.7868 14.7 11.6113 14.6107 11.5461 14.5771C11.4508 14.5279 11.3541 14.4658 11.2634 14.4027C11.08 14.2752 10.8637 14.1029 10.6351 13.9104C10.1748 13.5228 9.61681 13.0123 9.08279 12.5097C8.54697 12.0054 8.02777 11.5019 7.64301 11.125C7.45049 10.9364 7.2913 10.7792 7.18012 10.669L7.05114 10.5409L7.00592 10.4958L7.00514 10.495C7.0051 10.495 7.00507 10.4949 7.50004 9.99997L7.99503 9.50501L8.03903 9.54888L8.16566 9.67467C8.27519 9.78323 8.43241 9.93851 8.6227 10.1249C9.00357 10.498 9.51561 10.9945 10.0423 11.4902C10.5708 11.9876 11.1065 12.4771 11.5369 12.8395C11.7207 12.9943 11.8769 13.1188 12 13.2086C12.1232 13.1188 12.2794 12.9943 12.4632 12.8395C12.8936 12.4771 13.4293 11.9876 13.9578 11.4902C14.4845 10.9945 14.9965 10.498 15.3774 10.1249C15.5677 9.93851 15.7249 9.78323 15.8344 9.67467L15.9611 9.54888L16.0045 9.5056C16.2778 9.23223 16.7217 9.23162 16.995 9.50499ZM11.8119 13.333C11.7939 13.3402 11.793 13.3428 11.8119 13.333C11.8122 13.3329 11.8117 13.3331 11.8119 13.333ZM7.00507 9.50499C7.27844 9.23162 7.72167 9.23164 7.99503 9.50501L7.50004 9.99997L7.00514 10.495C6.73178 10.2216 6.7317 9.77836 7.00507 9.50499Z" fill="#525252"/>
</svg>
