<svg width="22" height="21" viewBox="0 0 22 21" fill="none" xmlns="http://www.w3.org/2000/svg">
<path fill-rule="evenodd" clip-rule="evenodd" d="M9.97362 1.30005H12.0264C13.4019 1.30005 14.47 1.30004 15.3306 1.35876C16.203 1.41828 16.9132 1.54048 17.564 1.81006C19.2057 2.49007 20.51 3.79438 21.19 5.43607C21.4596 6.08689 21.5818 6.79708 21.6413 7.66946C21.7 8.53009 21.7 9.59821 21.7 10.9738V11.0263C21.7 12.4019 21.7 13.47 21.6413 14.3306C21.5818 15.203 21.4596 15.9132 21.19 16.564C20.51 18.2057 19.2057 19.51 17.564 20.19C16.9132 20.4596 16.203 20.5818 15.3306 20.6413C14.47 20.7001 13.4018 20.7001 12.0263 20.7001H9.97372C8.59816 20.7001 7.53004 20.7001 6.66942 20.6413C5.79704 20.5818 5.08685 20.4596 4.43602 20.19C2.79434 19.51 1.49002 18.2057 0.81001 16.564C0.54043 15.9132 0.418239 15.203 0.358717 14.3306C0.299999 13.47 0.300001 12.4019 0.300003 11.0264V10.9737C0.300001 9.59816 0.299999 8.53007 0.358717 7.66946C0.418239 6.79708 0.54043 6.08689 0.81001 5.43607C1.49002 3.79438 2.79434 2.49007 4.43602 1.81006C5.08685 1.54048 5.79704 1.41828 6.66942 1.35876C7.53002 1.30004 8.59811 1.30005 9.97362 1.30005ZM6.76472 2.75552C5.96362 2.81017 5.42358 2.91634 4.97178 3.10349C3.67313 3.64141 2.64136 4.67318 2.10344 5.97183C1.9163 6.42363 1.81013 6.96366 1.75547 7.76476C1.70038 8.57215 1.7 9.59265 1.7 11C1.7 12.4075 1.70038 13.4279 1.75547 14.2353C1.81013 15.0364 1.9163 15.5765 2.10344 16.0283C2.64136 17.3269 3.67313 18.3587 4.97178 18.8966C5.42358 19.0838 5.96362 19.1899 6.76472 19.2446C7.57211 19.2997 8.5926 19.3 10 19.3H12C13.4074 19.3 14.4279 19.2997 15.2353 19.2446C16.0364 19.1899 16.5764 19.0838 17.0282 18.8966C18.3269 18.3587 19.3586 17.3269 19.8966 16.0283C20.0837 15.5765 20.1899 15.0364 20.2445 14.2353C20.2996 13.4279 20.3 12.4075 20.3 11C20.3 9.59265 20.2996 8.57215 20.2445 7.76476C20.1899 6.96366 20.0837 6.42363 19.8966 5.97183C19.3586 4.67318 18.3269 3.64141 17.0282 3.10349C16.5764 2.91634 16.0364 2.81017 15.2353 2.75552C14.4279 2.70043 13.4074 2.70005 12 2.70005H10C8.5926 2.70005 7.57211 2.70043 6.76472 2.75552Z" fill="#222628"/>
<path fill-rule="evenodd" clip-rule="evenodd" d="M15.7 0C16.0866 0 16.4 0.313401 16.4 0.7V3.3C16.4 3.6866 16.0866 4 15.7 4C15.3134 4 15 3.6866 15 3.3V0.7C15 0.313401 15.3134 0 15.7 0Z" fill="#222628"/>
<path fill-rule="evenodd" clip-rule="evenodd" d="M6.7 0C7.0866 0 7.4 0.313401 7.4 0.7V3.3C7.4 3.6866 7.0866 4 6.7 4C6.3134 4 6 3.6866 6 3.3V0.7C6 0.313401 6.3134 0 6.7 0Z" fill="#222628"/>
<path d="M11.7 8.00005C11.7 8.38665 11.3866 8.70005 11 8.70005C10.6134 8.70005 10.3 8.38665 10.3 8.00005C10.3 7.61345 10.6134 7.30005 11 7.30005C11.3866 7.30005 11.7 7.61345 11.7 8.00005Z" fill="#222628"/>
<path d="M16.7 8.00005C16.7 8.38665 16.3866 8.70005 16 8.70005C15.6134 8.70005 15.3 8.38665 15.3 8.00005C15.3 7.61345 15.6134 7.30005 16 7.30005C16.3866 7.30005 16.7 7.61345 16.7 8.00005Z" fill="#222628"/>
<path d="M6.7 8.00005C6.7 8.38665 6.3866 8.70005 6 8.70005C5.6134 8.70005 5.3 8.38665 5.3 8.00005C5.3 7.61345 5.6134 7.30005 6 7.30005C6.3866 7.30005 6.7 7.61345 6.7 8.00005Z" fill="#222628"/>
<path d="M11.7 12C11.7 12.3866 11.3866 12.7 11 12.7C10.6134 12.7 10.3 12.3866 10.3 12C10.3 11.6134 10.6134 11.3 11 11.3C11.3866 11.3 11.7 11.6134 11.7 12Z" fill="#222628"/>
<path d="M6.7 12C6.7 12.3866 6.3866 12.7 6 12.7C5.6134 12.7 5.3 12.3866 5.3 12C5.3 11.6134 5.6134 11.3 6 11.3C6.3866 11.3 6.7 11.6134 6.7 12Z" fill="#222628"/>
<path d="M16.7 12C16.7 12.3866 16.3866 12.7 16 12.7C15.6134 12.7 15.3 12.3866 15.3 12C15.3 11.6134 15.6134 11.3 16 11.3C16.3866 11.3 16.7 11.6134 16.7 12Z" fill="#222628"/>
<path d="M16.7 16C16.7 16.3866 16.3866 16.7 16 16.7C15.6134 16.7 15.3 16.3866 15.3 16C15.3 15.6134 15.6134 15.3 16 15.3C16.3866 15.3 16.7 15.6134 16.7 16Z" fill="#222628"/>
<path d="M11.7 16C11.7 16.3866 11.3866 16.7 11 16.7C10.6134 16.7 10.3 16.3866 10.3 16C10.3 15.6134 10.6134 15.3 11 15.3C11.3866 15.3 11.7 15.6134 11.7 16Z" fill="#222628"/>
<path d="M6.7 16C6.7 16.3866 6.3866 16.7 6 16.7C5.6134 16.7 5.3 16.3866 5.3 16C5.3 15.6134 5.6134 15.3 6 15.3C6.3866 15.3 6.7 15.6134 6.7 16Z" fill="#222628"/>
</svg>
