<svg xmlns="http://www.w3.org/2000/svg" width="30" height="30" viewBox="0 0 30 30" fill="none">
  <path d="M8.71125 8.71122C8.79833 8.62391 8.90179 8.55464 9.01568 8.50738C9.12958 8.46012 9.25168 8.43579 9.375 8.43579C9.49831 8.43579 9.62041 8.46012 9.73431 8.50738C9.84821 8.55464 9.95166 8.62391 10.0387 8.71122L15 13.6743L19.9612 8.71122C20.0484 8.62405 20.1519 8.55491 20.2658 8.50774C20.3797 8.46056 20.5017 8.43628 20.625 8.43628C20.7483 8.43628 20.8703 8.46056 20.9842 8.50774C21.0981 8.55491 21.2016 8.62405 21.2887 8.71122C21.3759 8.79838 21.4451 8.90186 21.4922 9.01575C21.5394 9.12963 21.5637 9.2517 21.5637 9.37497C21.5637 9.49824 21.5394 9.6203 21.4922 9.73419C21.4451 9.84807 21.3759 9.95155 21.2887 10.0387L16.3256 15L21.2887 19.9612C21.3759 20.0484 21.4451 20.1519 21.4922 20.2657C21.5394 20.3796 21.5637 20.5017 21.5637 20.625C21.5637 20.7482 21.5394 20.8703 21.4922 20.9842C21.4451 21.0981 21.3759 21.2016 21.2887 21.2887C21.2016 21.3759 21.0981 21.445 20.9842 21.4922C20.8703 21.5394 20.7483 21.5636 20.625 21.5636C20.5017 21.5636 20.3797 21.5394 20.2658 21.4922C20.1519 21.445 20.0484 21.3759 19.9612 21.2887L15 16.3256L10.0387 21.2887C9.95158 21.3759 9.8481 21.445 9.73422 21.4922C9.62033 21.5394 9.49827 21.5636 9.375 21.5636C9.25173 21.5636 9.12966 21.5394 9.01578 21.4922C8.90189 21.445 8.79841 21.3759 8.71125 21.2887C8.62408 21.2016 8.55494 21.0981 8.50777 20.9842C8.46059 20.8703 8.43631 20.7482 8.43631 20.625C8.43631 20.5017 8.46059 20.3796 8.50777 20.2657C8.55494 20.1519 8.62408 20.0484 8.71125 19.9612L13.6744 15L8.71125 10.0387C8.62394 9.95163 8.55467 9.84818 8.50741 9.73428C8.46015 9.62038 8.43582 9.49828 8.43582 9.37497C8.43582 9.25165 8.46015 9.12955 8.50741 9.01565C8.55467 8.90176 8.62394 8.7983 8.71125 8.71122Z" fill="white"/>
</svg>