<svg width="17" height="17" viewBox="0 0 17 17" fill="none" xmlns="http://www.w3.org/2000/svg">
<g id="Export">
<path id="Line 17 (Stroke)" fill-rule="evenodd" clip-rule="evenodd" d="M9.42102 7.63837C9.19322 7.41056 9.19322 7.04122 9.42102 6.81341L15.3136 0.920855C15.5414 0.693049 15.9107 0.693049 16.1385 0.920855C16.3663 1.14866 16.3663 1.51801 16.1385 1.74581L10.246 7.63837C10.0182 7.86618 9.64883 7.86618 9.42102 7.63837Z" fill="#006CFA"/>
<path id="Line 18 (Stroke)" fill-rule="evenodd" clip-rule="evenodd" d="M16.2141 1C16.2141 1.27614 15.9903 1.5 15.7141 1.5L12.0001 1.5C11.7239 1.5 11.5001 1.27614 11.5001 1C11.5001 0.723858 11.7239 0.5 12.0001 0.5L15.7141 0.5C15.9903 0.5 16.2141 0.723858 16.2141 1Z" fill="#006CFA"/>
<path id="Line 19 (Stroke)" fill-rule="evenodd" clip-rule="evenodd" d="M16 0.5C15.7239 0.5 15.5 0.723858 15.5 1L15.5 4.71405C15.5 4.99019 15.7239 5.21405 16 5.21405C16.2761 5.21404 16.5 4.99019 16.5 4.71404L16.5 1C16.5 0.723858 16.2761 0.5 16 0.5Z" fill="#006CFA"/>
<path id="Rectangle 210 (Stroke)" fill-rule="evenodd" clip-rule="evenodd" d="M8.14053 1.58331L9.83342 1.58331C10.1556 1.58331 10.4168 1.84448 10.4168 2.16665C10.4168 2.48881 10.1556 2.74998 9.83342 2.74998H8.16675C6.99035 2.74998 6.14313 2.75043 5.4776 2.80481C4.81887 2.85863 4.38966 2.96235 4.03995 3.14054C3.3657 3.48409 2.81752 4.03227 2.47398 4.70651C2.30914 5.03003 2.19629 5.61418 2.13936 6.68099C2.08362 7.72529 2.08342 9.13489 2.08342 11.0463C2.08342 11.4869 2.08502 11.756 2.13154 12.0231C2.17569 12.2767 2.26535 12.5507 2.47398 12.9601C2.81752 13.6344 3.3657 14.1825 4.03995 14.5261C4.38966 14.7043 4.81887 14.808 5.4776 14.8618C6.14313 14.9162 6.99035 14.9166 8.16675 14.9166C9.34315 14.9166 10.1904 14.9162 10.8559 14.8618C11.5146 14.808 11.9438 14.7043 12.2936 14.5261C12.9678 14.1825 13.516 13.6344 13.8595 12.9601C14.0377 12.6104 14.1414 12.1812 14.1953 11.5225C14.2496 10.8569 14.2501 10.0097 14.2501 8.83331V7.16665C14.2501 6.84448 14.5113 6.58331 14.8334 6.58331C15.1556 6.58331 15.4168 6.84448 15.4168 7.16665V8.85949C15.4168 10.0041 15.4168 10.8989 15.358 11.6175C15.2983 12.3483 15.175 12.9482 14.899 13.4898C14.4436 14.3835 13.717 15.1102 12.8232 15.5656C12.2816 15.8415 11.6818 15.9649 10.9509 16.0246C10.2323 16.0833 9.33753 16.0833 8.19293 16.0833H8.14057C6.99597 16.0833 6.10119 16.0833 5.38259 16.0246C4.65172 15.9649 4.05189 15.8415 3.5103 15.5656C2.61653 15.1102 1.88987 14.3835 1.43447 13.4898C1.18896 13.0079 1.05155 12.6217 0.982168 12.2233C0.916682 11.8473 0.916714 11.4811 0.91675 11.0749L0.916751 11.0265C0.916751 9.13875 0.91675 7.69799 0.974348 6.61881C1.03095 5.55835 1.14517 4.74464 1.43447 4.17686C1.88987 3.28309 2.61653 2.55643 3.5103 2.10103C4.05189 1.82508 4.65172 1.70173 5.38259 1.64202C6.10118 1.58331 6.99595 1.58331 8.14053 1.58331Z" fill="#006CFA"/>
</g>
</svg>
