<svg width="14" height="14" viewBox="0 0 14 14" fill="none" xmlns="http://www.w3.org/2000/svg">
<g id="Align right">
<path id="Line 89 (Stroke)" fill-rule="evenodd" clip-rule="evenodd" d="M0.299805 1.00005C0.299805 0.613449 0.613205 0.300049 0.999805 0.300049H12.9998C13.3864 0.300049 13.6998 0.613449 13.6998 1.00005C13.6998 1.38665 13.3864 1.70005 12.9998 1.70005H0.999805C0.613205 1.70005 0.299805 1.38665 0.299805 1.00005Z" fill="#222628"/>
<path id="Line 90 (Stroke)" fill-rule="evenodd" clip-rule="evenodd" d="M4.2998 7.00005C4.2998 6.61345 4.61321 6.30005 4.9998 6.30005H12.9998C13.3864 6.30005 13.6998 6.61345 13.6998 7.00005C13.6998 7.38665 13.3864 7.70005 12.9998 7.70005H4.9998C4.61321 7.70005 4.2998 7.38665 4.2998 7.00005Z" fill="#222628"/>
<path id="Line 91 (Stroke)" fill-rule="evenodd" clip-rule="evenodd" d="M8.2998 13C8.2998 12.6134 8.61321 12.3 8.9998 12.3H12.9998C13.3864 12.3 13.6998 12.6134 13.6998 13C13.6998 13.3866 13.3864 13.7 12.9998 13.7H8.9998C8.61321 13.7 8.2998 13.3866 8.2998 13Z" fill="#222628"/>
</g>
</svg>
