<svg width="20" height="18" viewBox="0 0 20 18" fill="none" xmlns="http://www.w3.org/2000/svg">
<path fill-rule="evenodd" clip-rule="evenodd" d="M10 0.300049C10.3866 0.300049 10.7 0.613449 10.7 1.00005V11C10.7 11.3866 10.3866 11.7 10 11.7C9.61341 11.7 9.30001 11.3866 9.30001 11V1.00005C9.30001 0.613449 9.61341 0.300049 10 0.300049Z" fill="white"/>
<path fill-rule="evenodd" clip-rule="evenodd" d="M9.57575 12.2424C9.34144 12.0081 9.34144 11.6282 9.57575 11.3939L12.7272 8.24238C12.9615 8.00806 13.3414 8.00806 13.5758 8.24238C13.8101 8.47669 13.8101 8.85659 13.5758 9.09091L10.4243 12.2424C10.19 12.4767 9.81007 12.4767 9.57575 12.2424Z" fill="white"/>
<path fill-rule="evenodd" clip-rule="evenodd" d="M10.4242 12.2424C10.6586 12.0081 10.6586 11.6282 10.4242 11.3939L7.27277 8.24238C7.03846 8.00806 6.65856 8.00806 6.42425 8.24238C6.18993 8.47669 6.18993 8.85659 6.42425 9.09091L9.57572 12.2424C9.81003 12.4767 10.1899 12.4767 10.4242 12.2424Z" fill="white"/>
<path fill-rule="evenodd" clip-rule="evenodd" d="M0.999988 8.80005C1.38659 8.80005 1.69999 9.11345 1.69999 9.50005L1.69999 13.6773C1.69999 14.8429 2.56619 15.809 3.70782 15.9191C5.59035 16.1006 8.09677 16.3 9.99999 16.3C11.9032 16.3 14.4096 16.1006 16.2922 15.9191C17.4338 15.809 18.3 14.8429 18.3 13.6773V9.50005C18.3 9.11345 18.6134 8.80005 19 8.80005C19.3866 8.80005 19.7 9.11345 19.7 9.50005V13.6773C19.7 15.5453 18.3044 17.1316 16.4265 17.3126C14.5386 17.4946 11.9752 17.7 9.99999 17.7C8.0248 17.7 5.46141 17.4946 3.57346 17.3126C1.69558 17.1316 0.299988 15.5453 0.299988 13.6773L0.299988 9.50005C0.299988 9.11345 0.613389 8.80005 0.999988 8.80005Z" fill="white"/>
</svg>
